<?xml version="1.0" standalone="no"?>
<!DOCTYPE svg PUBLIC "-//W3C//DTD SVG 20010904//EN"
 "http://www.w3.org/TR/2001/REC-SVG-20010904/DTD/svg10.dtd">
<svg version="1.0" xmlns="http://www.w3.org/2000/svg"
 width="1280.000000pt" height="1279.000000pt" viewBox="0 0 1280.000000 1279.000000"
 preserveAspectRatio="xMidYMid meet">
<metadata>
Created by potrace 1.15, written by Peter Selinger 2001-2017
</metadata>
<g transform="translate(0.000000,1279.000000) scale(0.100000,-0.100000)"
fill="#cccccc" stroke="none">
<path d="M6237 12672 c-48 -326 -61 -930 -37 -1642 10 -319 11 -740 1 -860
l-6 -75 -300 -7 c-277 -6 -802 -24 -1440 -48 -456 -18 -1425 -24 -1725 -11
-274 12 -573 33 -725 51 -44 6 -85 10 -92 10 -8 0 8 35 38 83 540 872 1427
1495 2616 1838 169 48 367 99 389 99 36 0 74 -224 81 -470 7 -244 -13 -429
-58 -541 l-10 -26 -117 23 c-387 75 -701 43 -940 -98 -72 -42 -228 -195 -275
-270 -43 -68 -80 -139 -75 -144 2 -2 44 -8 93 -14 132 -15 540 -12 924 6 200
9 459 14 639 12 l302 -3 0 1043 0 1042 -32 0 c-99 -1 -403 -22 -500 -35 -660
-90 -1245 -332 -1972 -818 -377 -251 -637 -448 -848 -641 -114 -104 -196 -191
-414 -436 -66 -74 -170 -187 -230 -250 -335 -354 -469 -526 -565 -723 -45 -94
-105 -274 -95 -285 8 -8 462 -9 1261 -2 558 4 655 -1 912 -47 l96 -17 26 -55
c22 -50 26 -72 29 -193 4 -143 -4 -217 -40 -350 l-20 -78 -1319 0 -1318 0 -15
-28 c-83 -160 -209 -511 -275 -764 -139 -530 -196 -991 -196 -1583 0 -339 8
-478 41 -750 7 -66 14 -121 14 -123 0 -8 295 9 545 29 296 25 616 38 755 31
l105 -4 5 -187 c3 -102 5 -253 5 -336 0 -147 -1 -151 -30 -210 l-30 -60 -165
-13 c-239 -18 -669 -20 -813 -3 -65 7 -120 11 -123 8 -10 -10 183 -702 256
-917 138 -409 330 -736 550 -936 l45 -41 120 13 c674 75 1653 76 2232 1 l92
-12 8 -225 c15 -446 8 -543 -48 -614 l-21 -26 -631 2 c-468 2 -653 0 -712 -9
-120 -19 -235 -45 -235 -53 0 -17 198 -235 322 -355 807 -779 2009 -1338 3258
-1515 297 -42 475 -54 825 -54 358 -1 488 7 794 50 895 126 1861 493 2696
1026 319 204 716 520 852 678 71 83 130 193 135 255 l3 40 -60 6 c-122 13
-400 8 -686 -12 -458 -32 -641 -20 -755 50 l-31 19 13 88 c8 49 14 143 14 209
0 136 16 330 31 390 19 77 61 165 78 165 9 0 52 -7 95 -15 222 -43 360 -47
1221 -40 l820 7 44 41 c311 286 593 755 765 1269 76 228 174 614 162 643 -6
16 -126 53 -211 65 -107 15 -243 12 -534 -11 -267 -21 -450 -21 -502 -1 l-26
10 -7 219 c-10 308 6 408 77 481 l31 32 674 -1 c371 0 678 3 683 8 14 14 39
329 46 568 15 576 -63 1200 -227 1816 -51 192 -153 511 -209 657 l-32 82 -47
2 c-26 2 -461 3 -967 3 -941 0 -943 0 -1206 41 l-106 16 -6 220 c-7 244 2 350
36 413 l22 40 105 7 c58 3 319 1 580 -5 596 -13 884 2 1062 55 l36 11 -35 99
c-105 300 -264 580 -489 863 -111 140 -450 478 -619 619 -374 312 -933 700
-1305 908 -656 366 -1212 549 -1922 632 l-48 6 0 -1075 0 -1075 1010 0 c1000
0 1010 0 1010 20 0 30 -30 100 -68 159 -93 141 -345 263 -655 316 -139 23
-367 45 -562 53 l-179 7 3 115 c1 63 -3 212 -9 330 -14 280 4 447 54 515 14
20 23 17 378 -102 455 -152 680 -241 928 -364 554 -277 1087 -734 1394 -1194
73 -110 186 -312 186 -333 0 -8 -71 -10 -266 -5 -147 3 -765 1 -1373 -7 -1341
-15 -1846 -6 -2397 45 -89 8 -167 15 -173 15 -8 0 -12 336 -13 1258 l-3 1257
-45 22 c-25 13 -115 39 -200 58 -85 20 -162 38 -170 40 -13 4 -19 -16 -33
-113z m3208 -3502 l0 -365 -1900 -6 c-1164 -4 -1964 -11 -2065 -17 -287 -19
-994 -26 -1195 -13 -194 13 -403 40 -554 71 -52 11 -98 20 -103 20 -4 0 -8
140 -8 310 l0 310 68 0 c37 0 207 4 377 10 1075 33 2352 47 4160 46 l1220 -1
0 -365z m1990 -970 c372 -8 521 -14 527 -23 12 -19 106 -365 138 -506 86 -382
151 -894 162 -1281 l3 -105 -55 -22 c-94 -37 -198 -44 -542 -37 l-318 7 -2
580 -3 581 -59 24 c-77 30 -217 67 -331 87 -173 29 -369 34 -880 20 -312 -9
-1216 -16 -2495 -19 -1103 -3 -2592 -13 -3310 -21 -718 -8 -1564 -17 -1880
-20 -316 -3 -625 -8 -686 -11 l-112 -6 -22 -101 c-59 -274 -89 -573 -97 -964
l-6 -283 -457 0 -457 0 -6 173 c-11 355 16 839 64 1157 38 250 65 368 140 621
l41 136 2361 8 c1299 4 2709 11 3132 15 1072 10 4521 4 5150 -10z m-7650
-1174 c339 -6 872 -40 973 -62 l22 -4 0 -400 0 -400 -42 0 c-23 0 -98 -7 -166
-16 -122 -16 -157 -14 -309 13 l-33 5 0 -276 0 -276 985 0 984 0 11 -37 c22
-79 30 -175 33 -400 4 -207 2 -233 -12 -237 -9 -3 -56 -12 -106 -20 -309 -51
-567 -61 -1230 -46 -665 15 -986 5 -1250 -40 -33 -5 -66 -10 -72 -10 -10 0
-11 32 -7 138 5 94 1 211 -12 377 -20 253 -25 575 -10 662 l8 51 -73 35 c-41
19 -110 43 -154 54 -120 27 -359 23 -655 -11 -272 -31 -474 -42 -612 -31 l-98
7 0 429 0 429 23 5 c35 8 296 33 472 46 145 10 938 28 1010 22 17 -1 161 -5
320 -7z m3377 -21 c198 -14 380 -31 423 -40 19 -4 20 -14 23 -279 4 -289 -5
-393 -37 -468 l-19 -45 -469 -6 c-314 -4 -567 -12 -768 -26 -508 -35 -1028
-51 -1039 -32 -17 27 -98 378 -112 483 -17 137 -9 241 26 323 16 37 24 45 52
49 52 8 672 47 898 56 262 11 756 3 1022 -15z m3658 -28 c34 -77 42 -168 38
-464 l-3 -281 -39 -6 c-22 -4 -256 -4 -520 0 -511 7 -605 1 -736 -43 -47 -16
-55 -22 -67 -57 -47 -138 -69 -487 -57 -898 l9 -288 -25 -4 c-43 -9 -171 -25
-280 -36 -253 -25 -591 -30 -1481 -24 l-916 7 -12 81 c-21 155 -22 241 -4 441
l18 200 920 5 920 5 3 244 c2 221 1 246 -15 264 -37 41 -73 47 -267 47 -185
-1 -241 8 -261 40 -4 6 -6 78 -6 160 2 116 -5 193 -28 357 -34 239 -40 291
-36 295 2 2 638 2 1415 0 l1411 -2 19 -43z m-28 -1354 l57 -8 8 -305 c4 -168
8 -432 7 -587 l0 -283 40 -15 c102 -37 136 -40 536 -40 l395 0 -3 -30 c-7 -60
-73 -238 -146 -393 -72 -150 -146 -348 -146 -388 -1 -44 -6 -45 -286 -54
-1288 -44 -2400 -53 -6264 -51 l-3645 1 -22 28 c-43 50 -164 234 -193 293 -64
127 -125 310 -144 435 l-6 42 86 12 c71 10 120 10 288 -4 244 -20 301 -20 390
-1 156 33 168 45 202 190 21 87 24 273 14 812 -3 144 -3 264 0 267 3 3 206 6
450 8 406 3 452 1 519 -16 41 -10 89 -25 107 -32 l34 -14 2 -522 3 -522 30 -8
c67 -18 337 -68 445 -83 343 -45 709 -58 1275 -45 237 6 977 15 1645 20 1146
9 1461 15 2050 40 396 17 1099 60 1247 76 l52 5 21 63 c33 100 39 201 33 532
-7 339 0 429 42 520 l23 51 73 8 c202 21 619 20 781 -2z m-1902 -3137 l0 -433
-102 -7 c-855 -54 -1092 -58 -3005 -54 l-1673 3 0 110 c0 61 -7 178 -15 260
-19 182 -20 387 -3 475 l13 65 105 6 c58 3 1134 6 2393 7 l2287 1 0 -433z
m-54 -1026 c198 -5 387 -13 421 -16 l62 -5 -48 -43 c-141 -125 -319 -244 -521
-349 -1109 -575 -2932 -681 -4249 -247 -396 130 -753 317 -996 522 -49 42 -98
84 -107 94 -16 19 10 19 1095 21 612 1 1434 8 1827 16 873 17 2033 20 2516 7z"/>
</g>
</svg>
